<?xml version="1.0" encoding="utf-8"?>
<!-- Generator: Adobe Illustrator 20.1.0, SVG Export Plug-In . SVG Version: 6.00 Build 0)  -->
<svg version="1.1" id="Layer_1" xmlns="http://www.w3.org/2000/svg" xmlns:xlink="http://www.w3.org/1999/xlink" x="0px" y="0px"
	 viewBox="0 0 267.9 92.4" style="enable-background:new 0 0 267.9 92.4;" xml:space="preserve">
<style type="text/css">
	.st0{fill:#BFBFBF;}
</style>
<title>Artboard 2</title>
<path class="st0" d="M113.4,76.1c-1.9,1-4.4,0.9-6.5,0.8l-8.2-0.1l0.1-23.1l9.6,0.1c0.5,0,1,0,1.5,0c1.9,0,3.7,0.8,4.9,2.3
	c0.7,1,1.1,2.2,1.1,3.4c0,1.6-0.8,3.1-2.1,4.1c-0.6,0.4-1.3,0.7-2.1,0.8c2.9,0.4,5.1,3,4.9,5.9C116.6,72.8,115.4,75,113.4,76.1z
	 M112.1,66.5c-1.5-0.7-3.1-1-4.7-0.9H101l-0.1,9.4h5.9c1.4,0.1,2.9,0,4.3-0.2c2-0.4,3.4-2.2,3.3-4.2
	C114.4,68.9,113.6,67.3,112.1,66.5L112.1,66.5z M112.9,57.4c-1.2-1.6-3.3-1.5-5-1.5H101l-0.1,7.8h6.5c1.8,0,4,0.1,5.3-1.5
	c0.5-0.7,0.8-1.6,0.8-2.5C113.6,58.9,113.4,58.1,112.9,57.4L112.9,57.4z"/>
<path class="st0" d="M118.9,77l0.1-23h2.2l-0.1,23.1L118.9,77z"/>
<path class="st0" d="M139.6,77.2l-7.2-10.3H127l0,10.2h-2.2l0.1-23.1h6.5c1.3,0,2.6,0,3.9,0.1c0.9,0.1,4.1,0.3,5.7,3.1
	c0.6,1.1,0.9,2.3,0.9,3.5c0.1,2.6-1.6,5-4.1,5.7c-0.9,0.3-1.9,0.5-2.8,0.5l7.4,10.3H139.6z M139,58c-1.1-1.8-2.9-2-4.8-2h-7.1
	l-0.1,9h5.4c0.6,0,1.2,0,1.8,0c1.7-0.1,3.4-0.1,4.6-1.7c0.6-0.8,0.9-1.7,0.8-2.7C139.7,59.7,139.5,58.8,139,58z"/>
<path class="st0" d="M151.6,56.1l-0.1,21.1h-2.2l0.1-21.1h-7.3v-1.9l16.7,0.1v1.9L151.6,56.1z"/>
<path class="st0" d="M176.6,77.4l0.1-10.8l-14.2-0.1l-0.1,10.8h-2.2l0.1-23.1h2.2l-0.1,10.3l14.2,0.1l0.1-10.3h2.2l-0.1,23.1
	L176.6,77.4z"/>
<path class="st0" d="M197.6,74.8c-0.8,0.9-1.8,1.6-3,2.1c-1.5,0.6-3,0.6-6.2,0.6h-6l0.1-23.1h6.2c0.8,0,1.6,0,2.4,0
	c2.6,0.1,4.6,0.5,6.5,2.6c1.3,1.4,3.1,4.3,3,8.9C200.7,67.2,200.6,71.7,197.6,74.8z M196.3,58.7c-0.6-0.8-1.4-1.4-2.3-1.7
	c-1.3-0.5-2.4-0.5-5.1-0.5h-4.1l-0.1,19.1h3.5c3,0,4.9-0.1,6.1-0.7c1-0.5,1.8-1.2,2.3-2.1c1.3-2,1.9-4.3,1.9-6.7
	C198.5,65.1,198.5,61.3,196.3,58.7z"/>
<path class="st0" d="M217.8,77.7l-2.6-7l-10.3-0.1l-2.7,6.9h-2.4l9.6-23h1.8l9,23.1L217.8,77.7z M210.2,57.1l-4.6,11.8l8.9,0.1
	L210.2,57.1z"/>
<path class="st0" d="M231,63l-3.6,5.2l-0.1,9.5h-2.2l0.1-9.5l-8.5-13.6h2.6l7,11.5l3.5-5.4"/>
<path class="st0" d="M249.3,76.8c-1.7,1.1-3.7,1.7-5.8,1.6c-4.4,0-7.6-1.9-8.6-6.5l2.2-1.1c0,0.9,0.1,1.8,0.5,2.6
	c0.6,1.4,2.4,3.1,5.9,3.1c0.9,0,1.8-0.1,2.6-0.3c2.2-0.5,3.7-2.4,3.8-4.6c0-0.8-0.2-1.6-0.6-2.2c-0.8-1.2-2.1-1.8-4.8-2.5
	c-1.7-0.4-3.4-0.9-5.1-1.6c-2-0.9-3.4-2.9-3.3-5.2c0-1.2,0.4-2.4,1.1-3.4c2-2.6,5.9-2.5,6.5-2.5c2.5-0.1,4.9,0.9,6.6,2.7
	c0.6,0.7,1,1.5,1.3,2.4l-2,1.1c-0.2-0.7-0.5-1.4-0.9-2c-1.2-1.6-3.1-2.5-5-2.4c-1.6-0.1-3.1,0.5-4.4,1.4c-0.7,0.7-1.1,1.6-1.1,2.6
	c0,0.8,0.2,1.5,0.7,2.2c1,1.3,2.7,1.8,4.2,2.2c2.2,0.6,5.1,1.2,6.8,2.7c1.4,1.1,2.2,2.8,2.1,4.5C252.2,73.7,251.1,75.7,249.3,76.8z"
	/>
<polygon class="st0" points="228.6,28.4 242.2,13.9 238.7,33.5 256.7,42 237,44.8 234.5,64.5 225.8,46.6 206.3,50.3 220.6,36.5 
	211,19.1 "/>
<path class="st0" d="M18.4,17.7l22.5,0.1l-1.3,6.4H25.9l-1.7,7.4h13.2L36.1,38h-13l-2.9,13.5h-9.1L18.4,17.7z"/>
<path class="st0" d="M50.8,17.8h11.3l5.4,33.7h-9.1l-0.9-7.2H44.4l-4,7.2h-9.7L50.8,17.8z M55.3,24.7L55.3,24.7L48,37.9h8.7
	L55.3,24.7z"/>
<path class="st0" d="M75.5,17.8h14.1l0.5,22.6h0.1l10.6-22.6h14.4L108,51.4h-8.8l6.2-27.6h-0.1L92,51.5h-8.5l-1.2-27.6h-0.1
	l-5.9,27.6h-8.2L75.5,17.8z"/>
<path class="st0" d="M128.5,52.2c-10.9,0-14.9-6.8-14.9-13.7c0-12.8,6.8-21.1,19.7-21.1c10.9,0,14.9,6.8,14.9,13.8
	C148.2,43.9,141.5,52.3,128.5,52.2z M132.7,24.1c-6.9,0-9.9,8-9.9,13.7c0,4.2,1.6,7.8,6.2,7.8c6.9,0,9.9-8,9.9-13.7
	C139,27.7,137.4,24.1,132.7,24.1z"/>
<path class="st0" d="M179.7,33.8c-2.2,10.7-4.9,18.6-17.1,18.5c-7.6,0-13.5-2.7-13.5-10.6c0-2.1,0.3-4.3,0.7-6.4l3.9-17.3h9.1
	l-4.1,19c-0.3,1.2-0.5,2.4-0.6,3.7c0,2.7,1.6,4.9,4.8,4.9c5.8,0,6.7-6.9,7.9-12.3l3.4-15.2h8.9L179.7,33.8z"/>
<path class="st0" d="M206.6,25.8c-2.3-1.1-4.9-1.6-7.4-1.6c-3.6,0-6.5,0.5-6.5,3.2c0,4.8,13.1,3,13,13.3c0,9.3-8.7,11.7-16.5,11.7
	c-3.5-0.1-7-0.7-10.4-1.8l2.1-6.8c1.8,1.2,5.3,1.9,8.3,2c2.8,0,7.2-0.5,7.2-4c0-5.4-13.1-3.4-13-12.9c0-8.7,7.6-11.3,15-11.2
	c4.1,0,8.1,0.5,10.3,1.5L206.6,25.8z"/>
</svg>
