<svg id="Layer_1" data-name="Layer 1" xmlns="http://www.w3.org/2000/svg" viewBox="0 0 300 285"><defs><style>.cls-1{fill:#efefef;}</style></defs><title>stars-bg</title><polygon class="cls-1" points="42.443 20.547 50.896 11.565 48.752 23.711 59.905 28.973 47.691 30.686 46.132 42.919 40.73 31.834 28.613 34.133 37.487 25.567 31.558 14.753 42.443 20.547"/><polygon class="cls-1" points="28.523 50.543 38.648 39.785 36.079 54.333 49.438 60.636 34.809 62.688 32.941 77.341 26.471 64.063 11.957 66.816 22.586 56.556 15.484 43.603 28.523 50.543"/><polygon class="cls-1" points="48.446 46.456 51.502 43.209 50.727 47.599 54.759 49.502 50.343 50.121 49.779 54.543 47.827 50.536 43.446 51.367 46.654 48.27 44.511 44.361 48.446 46.456"/><polygon class="cls-1" points="17.732 18.371 23.225 12.534 21.832 20.427 29.08 23.847 21.143 24.96 20.129 32.91 16.619 25.706 8.745 27.2 14.511 21.633 10.658 14.606 17.732 18.371"/><polygon class="cls-1" points="273.794 21.516 282.247 12.534 280.102 24.68 291.255 29.942 279.042 31.655 277.482 43.888 272.081 32.803 259.964 35.101 268.837 26.536 262.909 15.722 273.794 21.516"/><polygon class="cls-1" points="259.873 51.512 269.998 40.753 267.43 55.301 280.789 61.605 266.159 63.657 264.291 78.31 257.821 65.032 243.308 67.784 253.936 57.525 246.835 44.572 259.873 51.512"/><polygon class="cls-1" points="280.005 48.193 282.09 45.977 281.561 48.973 284.313 50.272 281.3 50.694 280.915 53.712 279.582 50.978 276.593 51.545 278.782 49.431 277.32 46.764 280.005 48.193"/><polygon class="cls-1" points="252.518 23.045 255.879 19.474 255.027 24.303 259.462 26.396 254.605 27.077 253.985 31.941 251.837 27.533 247.019 28.447 250.547 25.041 248.19 20.741 252.518 23.045"/><polygon class="cls-1" points="240.131 36.41 244.456 31.814 243.359 38.028 249.065 40.721 242.816 41.597 242.018 47.856 239.255 42.184 233.056 43.36 237.596 38.978 234.562 33.446 240.131 36.41"/><polygon class="cls-1" points="280.661 128.532 284.148 124.827 283.263 129.838 287.865 132.009 282.826 132.716 282.182 137.763 279.954 133.189 274.955 134.137 278.616 130.604 276.17 126.142 280.661 128.532"/><polygon class="cls-1" points="259.712 148.622 269.837 137.863 267.268 152.411 280.627 158.715 265.998 160.767 264.13 175.42 257.66 162.142 243.146 164.895 253.775 154.635 246.673 141.682 259.712 148.622"/><polygon class="cls-1" points="279.036 146.11 281.122 143.894 280.593 146.891 283.344 148.189 280.331 148.612 279.946 151.63 278.614 148.895 275.624 149.462 277.814 147.349 276.351 144.681 279.036 146.11"/><polygon class="cls-1" points="257.797 116.697 263.99 110.116 262.419 119.015 270.59 122.87 261.642 124.125 260.499 133.087 256.542 124.966 247.665 126.65 254.166 120.375 249.822 112.452 257.797 116.697"/><polygon class="cls-1" points="239.97 133.52 244.295 128.925 243.198 135.138 248.904 137.831 242.655 138.707 241.857 144.966 239.093 139.295 232.894 140.47 237.434 136.088 234.401 130.556 239.97 133.52"/><polygon class="cls-1" points="24.285 255.188 20.829 258.859 21.706 253.895 17.147 251.743 22.14 251.043 22.777 246.042 24.985 250.574 29.938 249.634 26.311 253.136 28.734 257.556 24.285 255.188"/><polygon class="cls-1" points="45.041 235.283 35.009 245.943 37.554 231.528 24.318 225.283 38.813 223.25 40.664 208.731 47.074 221.887 61.454 219.16 50.923 229.325 57.96 242.159 45.041 235.283"/><polygon class="cls-1" points="25.894 237.771 23.828 239.967 24.352 236.998 21.626 235.712 24.611 235.293 24.992 232.303 26.313 235.012 29.275 234.451 27.106 236.544 28.555 239.188 25.894 237.771"/><polygon class="cls-1" points="46.938 266.915 40.802 273.435 42.359 264.618 34.263 260.798 43.129 259.555 44.261 250.675 48.182 258.721 56.977 257.053 50.536 263.271 54.84 271.12 46.938 266.915"/><polygon class="cls-1" points="64.601 250.246 60.316 254.799 61.403 248.642 55.75 245.975 61.941 245.106 62.732 238.905 65.47 244.525 71.612 243.36 67.114 247.702 70.119 253.183 64.601 250.246"/></svg>